<svg class="svg-icon" style="width: 1em; height: 1em;vertical-align: middle;fill: currentColor;overflow: hidden;" viewBox="0 0 1024 1024" version="1.1" xmlns="http://www.w3.org/2000/svg"><path d="M460.949812 320.379775c-54.174853 0-98.071619 46.283116-98.071619 103.360066s43.896766 103.360066 98.071619 103.360066 98.066503-46.283116 98.066503-103.360066S515.124665 320.379775 460.949812 320.379775zM512.002558 128.08826c-212.039277 0-383.91788 171.878602-383.91788 383.91174s171.878602 383.91174 383.91788 383.91174c212.033138 0 383.91174-171.878602 383.91174-383.91174S724.035696 128.08826 512.002558 128.08826zM627.97385 743.92928c0-97.204879-74.795497-176.014806-167.031201-176.014806-92.228541 0-166.997432 78.809927-166.997432 176.014806L256.065492 743.92928c0-91.012853 53.431933-168.801521 129.009236-200.578248-36.554544-25.816992-60.625776-69.721945-60.625776-119.611192 0-79.455633 61.110823-143.889131 136.50086-143.889131 75.40948 0 136.532583 64.433498 136.532583 143.889131 0 49.875944-24.103978 93.793176-60.651358 119.611192 75.564 31.776727 129.014352 109.564371 128.98263 200.578248L627.97385 743.92928zM767.945765 707.640796c0 0.090051-0.032746 0.233314-0.032746 0.37453 0-0.064468-0.00614 0.220011-0.064468 0.413416l-38.493709-0.814552c0-75.823919-49.184189-138.136104-118.575606-145.596006-0.083911 0-0.149403-0.154519-0.239454-0.193405-11.711739-0.464581-21.11797-10.588149-21.11797-23.076578 0-12.281721 9.134031-22.23542 20.61962-22.998807 0.025583-0.025583 0.065492-0.104377 0.104377-0.104377 34.524305-6.65763 60.691267-38.499849 60.691267-76.767408 0-34.349319-21.027919-63.476707-50.27094-73.910337-0.064468-0.024559-2.255367-0.594541-3.903913-1.331321-9.333576-1.51347-16.477276-9.942443-16.477276-20.219507 0-11.363815 8.752338-20.595061 19.548218-20.595061 0.568958 0 1.124614 0.155543 1.693572 0.193405 0.419556-0.181125 0.865717-0.232291 1.325182-0.115634 50.458205 12.397355 88.032986 60.07626 88.032986 117.037577 0 41.73145-20.161179 78.474282-50.788733 100.024088 63.238276 26.529213 107.949594 91.569532 107.949594 167.651324L767.945765 707.640796z"  /></svg>