<svg class="svg-icon" style="width: 1em; height: 1em;vertical-align: middle;fill: currentColor;overflow: hidden;" viewBox="0 0 1024 1024" version="1.1" xmlns="http://www.w3.org/2000/svg"><path d="M513.667989 129.188314c-212.157981 0-384.145054 171.987073-384.145054 384.145054s171.987073 384.149147 384.145054 384.149147 384.149147-171.991166 384.149147-384.149147S725.82597 129.188314 513.667989 129.188314L513.667989 129.188314zM606.719268 710.692295c-0.10847 0-54.220902 0.016373-54.220902 0.016373 0 21.946848-17.70729 40.696888-39.658232 40.696888-21.946848 0-39.654138-18.382673-39.654138-42.094724l-98.602715 0c-21.950941 0-39.739073-17.092283-39.739073-39.043225 0-21.946848 17.788132-39.387056 39.739073-39.387056l231.812623 0.157589c21.760606-0.177032 39.414685-17.832134 39.414685-39.636742 0-21.800515-17.654079-39.500643-39.414685-39.677675l-185.774077 0.00307c-65.843614 0-119.217219-53.958936-119.217219-119.797433 0-65.843614 53.372581-119.80255 119.217219-119.80255l52.564169 0c0.87288-20.325931 18.264992-38.081317 39.654138-38.081317s38.780235 17.755386 39.658232 38.081317l100.259448 0c21.946848 0 39.739073 17.857716 39.739073 39.803541 0 21.946848-17.792225 39.802518-39.739073 39.802518L420.621826 391.732869c-21.914102 0-39.740096 18.358113-39.740096 40.268122 0 21.914102 17.824971 40.005133 39.740096 40.005133 0.10847 0 185.988971 0.149403 186.097442 0.149403 65.540715 0.352017 118.569466 53.643758 118.569466 119.268384C725.287711 657.04956 672.25896 710.341301 606.719268 710.692295L606.719268 710.692295zM606.719268 710.692295"  /></svg>