<svg class="svg-icon" style="width: 1em; height: 1em;vertical-align: middle;fill: currentColor;overflow: hidden;" viewBox="0 0 1024 1024" version="1.1" xmlns="http://www.w3.org/2000/svg"><path d="M830.3616 193.6384c-91.8528-91.8528-214.016-142.4384-343.9616-142.4384s-252.0576 50.5856-343.9616 142.4384-142.4384 214.016-142.4384 343.9104 50.5856 252.0576 142.4384 343.9616 214.016 142.4384 343.9616 142.4384 252.0576-50.5856 343.9616-142.4384 142.4384-214.016 142.4384-343.9616-50.5856-252.0576-142.4384-343.9104zM486.4 972.8c-239.9744 0-435.2-195.2256-435.2-435.2s195.2256-435.2 435.2-435.2c239.9744 0 435.2 195.2256 435.2 435.2s-195.2256 435.2-435.2 435.2z"  /><path d="M786.0736 519.5264l-204.8-204.8c-9.984-9.984-26.2144-9.984-36.1984 0s-9.984 26.2144 0 36.1984l161.1264 161.0752-527.0016 0c-14.1312 0-25.6 11.4688-25.6 25.6s11.4688 25.6 25.6 25.6l527.0016 0-161.0752 161.1264c-9.984 9.984-9.984 26.2144 0 36.1984 5.0176 5.0176 11.5712 7.4752 18.0736 7.4752s13.1072-2.5088 18.0736-7.5264l204.8-204.8c9.984-9.984 9.984-26.2144 0-36.1984z"  /></svg>