<svg class="svg-icon" style="width: 1em; height: 1em;vertical-align: middle;fill: currentColor;overflow: hidden;" viewBox="0 0 1024 1024" version="1.1" xmlns="http://www.w3.org/2000/svg"><path d="M864.4 478.4h-25.1V379c0-31.4-25.4-56.8-56.8-56.8H555.3c-17.1 0-32.2 7.7-42.6 19.6-10.4-11.9-25.5-19.6-42.6-19.6H242.7c-31.4 0-56.8 25.4-56.8 56.8v99.4h-25.1c-17.5 0-31.8 14.2-31.8 31.8v192.2c0 17.5 14.2 31.8 31.8 31.8h78.5c16.4 0 29.7-12.5 31.4-28.4h483.6c1.7 15.9 15 28.4 31.4 28.4h78.5c17.5 0 31.8-14.2 31.8-31.8V510.2c0.2-17.6-14-31.8-31.6-31.8zM555.3 350.6h227.3c15.7 0 28.4 12.7 28.4 28.4v99.4h-25.1c-16.4 0-29.8 12.5-31.4 28.5-0.4 0-0.7-0.1-1.1-0.1H555.3c-10.4 0-20 3-28.4 7.9V379c-0.1-15.7 12.7-28.4 28.4-28.4zM271.2 536l198.1-0.7c15.7-0.1 28.5 12.6 28.5 28.3l0.2 71H271.2V536z m255.6 28.3c0-15.6 12.7-28.4 28.3-28.4l198.2-0.7 0.3 99.4H526.8v-70.3zM214.3 379c0-15.7 12.7-28.4 28.4-28.4H470c15.7 0 28.4 12.7 28.4 28.4v135.7c-8.4-4.9-18-7.9-28.4-7.9H271.9c-0.4 0-0.7 0.1-1.1 0.1-1.6-16-15-28.5-31.4-28.5h-25.1V379z m25.1 326.7h-78.5c-1.8 0-3.4-1.5-3.4-3.4V510.2c0-1.8 1.5-3.4 3.4-3.4h78.5c1.8 0 3.4 1.5 3.4 3.4v192.2c-0.1 1.8-1.6 3.3-3.4 3.3z m31.8-56.8h483v28.4h-483v-28.4z m596.6 53.4c0 1.8-1.5 3.4-3.4 3.4h-78.5c-1.8 0-3.4-1.5-3.4-3.4V510.2c0-1.8 1.5-3.4 3.4-3.4h78.5c1.8 0 3.4 1.5 3.4 3.4v192.1z"  /></svg>