<?xml version="1.0" encoding="iso-8859-1"?>
<!-- Uploaded to: SVG Repo, www.svgrepo.com, Generator: SVG Repo Mixer Tools -->
<svg version="1.1" id="Layer_1" xmlns="http://www.w3.org/2000/svg" xmlns:xlink="http://www.w3.org/1999/xlink" 
	 viewBox="0 0 460 460" xml:space="preserve">
<g id="XMLID_1038_">
	<path id="XMLID_1039_" style="fill:#487ED2;" d="M162.476,449.919l297.205-207.773C459.89,238.124,460,234.075,460,230
		C460,102.974,357.025,0,230,0S0,102.974,0,230C0,333.527,68.403,421.069,162.476,449.919z"/>
	<path id="XMLID_1040_" style="fill:#1D54BD;" d="M459.681,242.146L245,27.465l-129.908,375.07l47.384,47.384
		C183.829,456.467,206.501,460,230,460C352.951,460,453.365,363.525,459.681,242.146z"/>
	<rect id="XMLID_1041_" x="230" y="227.52" style="fill:#A8CFFF;" width="106.5" height="20"/>
	<rect id="XMLID_1042_" x="123.5" y="227.52" style="fill:#FFFFFF;" width="106.5" height="20"/>
	<polygon id="XMLID_1043_" style="fill:#FFFFFF;" points="115.092,402.535 125.361,338.951 148.798,347.65 	"/>
	<polygon id="XMLID_1044_" style="fill:#A8CFFF;" points="344.908,402.535 334.64,338.951 311.202,347.65 	"/>
	<polygon id="XMLID_1045_" style="fill:#A8CFFF;" points="153.485,349.39 131.646,357.936 120.673,337.21 198.555,127.388 
		231.368,139.568 	"/>
	<polygon id="XMLID_1046_" style="fill:#73A7E6;" points="306.515,349.39 328.354,357.936 339.328,337.21 261.445,127.388 
		228.632,139.568 	"/>
	<circle id="XMLID_1047_" style="fill:#A8CFFF;" cx="306.677" cy="299.537" r="25"/>
	<path id="XMLID_1048_" style="fill:#FFFFFF;" d="M245,27.465h-30v46.898c-20.283,6.373-35,25.323-35,47.707c0,27.62,22.39,50,50,50
		l15-81.214V27.465z"/>
	<rect id="XMLID_1049_" x="220" y="214.869" style="fill:#73A7E6;" width="20" height="45.305"/>
	<path id="XMLID_1050_" style="fill:#A8CFFF;" d="M230,72.07v20c-16.57,0-30,13.43-30,30s13.43,30,30,30v20c27.61,0,50-22.38,50-50
		C280,94.46,257.61,72.07,230,72.07z"/>
	<path id="XMLID_1051_" style="fill:#73A7E6;" d="M230,92.07c16.57,0,30,13.43,30,30s-13.43,30-30,30V92.07z"/>
</g>
</svg>